<svg width="209" height="172" viewBox="0 0 209 172" fill="none" xmlns="http://www.w3.org/2000/svg">
<path d="M59.36 21.172V13.684H71.564V40H63.176V21.172H59.36Z" fill="white"/>
<g clip-path="url(#clip0_0_287)">
<path d="M129 40H79C76.2399 40.0033 74.0033 42.2399 74 45V95.0001C74.0033 97.7601 76.2399 99.9967 79 100H129C131.76 99.9967 133.997 97.7601 134 95V45C133.997 42.2399 131.76 40.0033 129 40V40ZM79 42H129C130.657 42 132 43.3432 132 45V48H76V45C76 43.3431 77.3431 42 79 42ZM129 98H79C77.3432 98 76 96.6568 76 95V50H132V95C132 96.6569 130.657 98 129 98Z" fill="#1A5CFF"/>
<path d="M121 46C121.552 46 122 45.5523 122 45C122 44.4478 121.552 44.0001 121 44.0001C120.447 44.0001 120 44.4478 120 45C120 45.5523 120.447 46 121 46Z" fill="#1A5CFF"/>
<path d="M125 45.9999C125.552 45.9999 126 45.5522 126 45C126 44.4477 125.552 44 125 44C124.448 44 124 44.4477 124 45C124 45.5522 124.448 45.9999 125 45.9999Z" fill="#1A5CFF"/>
<path d="M129 46C129.552 46 130 45.5523 130 45C130 44.4478 129.552 44.0001 129 44.0001C128.448 44.0001 128 44.4478 128 45C128 45.5523 128.448 46 129 46Z" fill="#1A5CFF"/>
<path d="M80.9998 61H101C102.104 61 103 60.1045 103 58.9999V55C103 53.8954 102.104 52.9999 101 52.9999H80.9998C79.8952 52.9999 78.9998 53.8954 78.9998 55V58.9999C78.9999 60.1045 79.8953 61 80.9998 61ZM80.9998 55H101V58.9999H80.9998V55Z" fill="#1A5CFF"/>
<path d="M127 52.9999H107C105.895 52.9999 105 53.8954 105 55V58.9999C105 60.1045 105.895 61 107 61H127C128.105 61 129 60.1045 129 58.9999V55C129 53.8954 128.105 52.9999 127 52.9999ZM107 58.9999V55H127V58.9999H107Z" fill="#1A5CFF"/>
<path d="M127 63.0001H80.9998C79.8952 63.0001 78.9998 63.8955 78.9998 65.0001V85C78.9998 86.1046 79.8952 87.0001 80.9998 87.0001H127C128.104 87.0001 129 86.1046 129 85V65C129 63.8955 128.104 63.0001 127 63.0001ZM80.9998 85V65H127V85H80.9998Z" fill="#1A5CFF"/>
<path d="M126 89H112C110.343 89 109 90.3432 109 92C109 93.6568 110.343 95 112 95H126C127.657 95 129 93.6568 129 92C129 90.3432 127.657 89 126 89ZM126 93.0001H112C111.448 93.0001 111 92.5523 111 92.0001C111 91.4478 111.448 91.0002 112 91.0002H126C126.552 91.0002 127 91.4479 127 92.0001C127 92.5523 126.552 93.0001 126 93.0001Z" fill="#1A5CFF"/>
<path d="M84.0001 69.0001H87.0001C87.5524 69.0001 88.0001 68.5523 88.0001 68.0001C88.0001 67.4478 87.5523 67.0002 87.0001 67.0002H84.0001C83.4478 67.0002 83.0002 67.448 83.0002 68.0001C83.0002 68.5523 83.4479 69.0001 84.0001 69.0001Z" fill="#1A5CFF"/>
<path d="M90.9998 69.0001H103C103.552 69.0001 104 68.5523 104 68.0001C104 67.4478 103.552 67.0002 103 67.0002H90.9998C90.4475 67.0002 89.9998 67.448 89.9998 68.0001C89.9997 68.5523 90.4475 69.0001 90.9998 69.0001Z" fill="#1A5CFF"/>
<path d="M110 71H84.0001C83.4478 71 83.0002 71.4477 83.0002 72C83.0002 72.5523 83.4479 72.9999 84.0001 72.9999H110C110.552 72.9999 111 72.5523 111 72C111 71.4477 110.552 71 110 71Z" fill="#1A5CFF"/>
<path d="M78.2929 46.7073C78.6833 47.0977 79.3164 47.0977 79.7068 46.7073L79.9998 46.4144L80.2928 46.7073C80.6851 47.0863 81.3089 47.0809 81.6946 46.6951C82.0804 46.3094 82.0857 45.6857 81.7068 45.2933L81.4138 45.0004L81.7068 44.7074C82.0857 44.3151 82.0804 43.6913 81.6946 43.3056C81.3088 42.9198 80.6851 42.9144 80.2928 43.2934L79.9998 43.5864L79.7068 43.2934C79.3145 42.9144 78.6907 42.9198 78.305 43.3056C77.9193 43.6914 77.9139 44.3151 78.2929 44.7074L78.5858 45.0004L78.2929 45.2933C77.9024 45.6838 77.9024 46.3169 78.2929 46.7073Z" fill="#1A5CFF"/>
</g>
<path d="M14.6825 115.004C16.0171 115.004 17.0251 115.191 17.7065 115.564C18.3878 115.937 18.7285 116.595 18.7285 117.538C18.7285 118.107 18.5931 118.588 18.3225 118.98C18.0611 119.372 17.6831 119.61 17.1885 119.694V119.764C17.5245 119.829 17.8278 119.946 18.0985 120.114C18.3691 120.282 18.5838 120.525 18.7425 120.842C18.9011 121.159 18.9805 121.579 18.9805 122.102C18.9805 123.007 18.6538 123.717 18.0005 124.23C17.3471 124.743 16.4511 125 15.3125 125H11.5745V115.004H14.6825ZM14.9205 118.966C15.5365 118.966 15.9611 118.868 16.1945 118.672C16.4371 118.476 16.5585 118.191 16.5585 117.818C16.5585 117.435 16.4185 117.16 16.1385 116.992C15.8585 116.824 15.4151 116.74 14.8085 116.74H13.6885V118.966H14.9205ZM13.6885 120.646V123.25H15.0745C15.7091 123.25 16.1525 123.129 16.4045 122.886C16.6565 122.634 16.7825 122.303 16.7825 121.892C16.7825 121.519 16.6518 121.22 16.3905 120.996C16.1385 120.763 15.6765 120.646 15.0045 120.646H13.6885ZM20.8127 125V117.356H22.8987V120.31H23.9067C25.0734 120.31 25.9367 120.497 26.4967 120.87C27.0567 121.243 27.3367 121.808 27.3367 122.564C27.3367 123.301 27.0754 123.894 26.5527 124.342C26.03 124.781 25.1714 125 23.9767 125H20.8127ZM28.4427 125V117.356H30.5287V125H28.4427ZM23.8647 123.558C24.2754 123.558 24.6067 123.483 24.8587 123.334C25.12 123.185 25.2507 122.937 25.2507 122.592C25.2507 122.032 24.7794 121.752 23.8367 121.752H22.8987V123.558H23.8647ZM32.2452 120.422C32.2452 118.733 32.5626 117.421 33.1972 116.488C33.8412 115.555 34.9006 114.957 36.3752 114.696C36.8699 114.612 37.3692 114.542 37.8732 114.486C38.3866 114.421 38.9139 114.355 39.4552 114.29L39.6932 116.11C39.3759 116.147 39.0259 116.189 38.6432 116.236C38.2699 116.283 37.8966 116.329 37.5232 116.376C37.1592 116.413 36.8326 116.455 36.5432 116.502C36.0766 116.577 35.6892 116.693 35.3812 116.852C35.0732 117.001 34.8352 117.244 34.6672 117.58C34.5086 117.916 34.4106 118.401 34.3732 119.036H34.4712C34.5832 118.859 34.7372 118.681 34.9332 118.504C35.1386 118.327 35.3906 118.177 35.6892 118.056C35.9879 117.935 36.3286 117.874 36.7112 117.874C37.6259 117.874 38.3492 118.154 38.8812 118.714C39.4226 119.274 39.6932 120.109 39.6932 121.22C39.6932 122.088 39.5346 122.811 39.2172 123.39C38.8999 123.969 38.4612 124.407 37.9012 124.706C37.3412 124.995 36.6926 125.14 35.9552 125.14C34.8259 125.14 33.9252 124.734 33.2532 123.922C32.5812 123.11 32.2452 121.943 32.2452 120.422ZM36.0812 123.446C36.5199 123.446 36.8746 123.297 37.1452 122.998C37.4252 122.699 37.5652 122.167 37.5652 121.402C37.5652 120.795 37.4626 120.315 37.2572 119.96C37.0612 119.596 36.7159 119.414 36.2212 119.414C35.9226 119.414 35.6426 119.489 35.3812 119.638C35.1292 119.778 34.9146 119.941 34.7372 120.128C34.5599 120.305 34.4386 120.459 34.3732 120.59C34.3732 121.066 34.4246 121.523 34.5272 121.962C34.6299 122.401 34.8026 122.76 35.0452 123.04C35.2972 123.311 35.6426 123.446 36.0812 123.446ZM43.4322 120.38C43.4322 120.539 43.4229 120.735 43.4042 120.968C43.3949 121.201 43.3809 121.439 43.3622 121.682C43.3529 121.925 43.3389 122.139 43.3202 122.326C43.3016 122.513 43.2876 122.643 43.2782 122.718L46.8062 117.356H49.3122V125H47.2962V121.948C47.2962 121.696 47.3056 121.421 47.3242 121.122C47.3429 120.814 47.3616 120.529 47.3802 120.268C47.4082 119.997 47.4269 119.792 47.4362 119.652L43.9222 125H41.4162V117.356H43.4322V120.38ZM55.7484 117.216C56.6071 117.216 57.3024 117.552 57.8344 118.224C58.3664 118.887 58.6324 119.867 58.6324 121.164C58.6324 122.461 58.3571 123.451 57.8064 124.132C57.2557 124.804 56.5511 125.14 55.6924 125.14C55.1417 125.14 54.7031 125.042 54.3764 124.846C54.0497 124.641 53.7837 124.412 53.5784 124.16H53.4664C53.5411 124.552 53.5784 124.925 53.5784 125.28V128.36H51.4924V117.356H53.1864L53.4804 118.35H53.5784C53.7837 118.042 54.0591 117.776 54.4044 117.552C54.7497 117.328 55.1977 117.216 55.7484 117.216ZM55.0764 118.882C54.5351 118.882 54.1524 119.05 53.9284 119.386C53.7137 119.722 53.5971 120.235 53.5784 120.926V121.15C53.5784 121.887 53.6857 122.457 53.9004 122.858C54.1244 123.25 54.5257 123.446 55.1044 123.446C55.5804 123.446 55.9304 123.25 56.1544 122.858C56.3877 122.457 56.5044 121.883 56.5044 121.136C56.5044 119.633 56.0284 118.882 55.0764 118.882ZM63.4878 117.202C64.5144 117.202 65.2984 117.426 65.8398 117.874C66.3904 118.313 66.6658 118.989 66.6658 119.904V125H65.2098L64.8038 123.964H64.7478C64.4211 124.375 64.0758 124.673 63.7118 124.86C63.3478 125.047 62.8484 125.14 62.2138 125.14C61.5324 125.14 60.9678 124.944 60.5198 124.552C60.0718 124.151 59.8478 123.539 59.8478 122.718C59.8478 121.906 60.1324 121.309 60.7018 120.926C61.2711 120.534 62.1251 120.319 63.2638 120.282L64.5938 120.24V119.904C64.5938 119.503 64.4864 119.209 64.2718 119.022C64.0664 118.835 63.7771 118.742 63.4038 118.742C63.0304 118.742 62.6664 118.798 62.3118 118.91C61.9571 119.013 61.6024 119.143 61.2478 119.302L60.5618 117.888C60.9724 117.673 61.4251 117.505 61.9198 117.384C62.4238 117.263 62.9464 117.202 63.4878 117.202ZM63.7818 121.486C63.1098 121.505 62.6431 121.626 62.3818 121.85C62.1204 122.074 61.9898 122.368 61.9898 122.732C61.9898 123.049 62.0831 123.278 62.2698 123.418C62.4564 123.549 62.6991 123.614 62.9978 123.614C63.4458 123.614 63.8238 123.483 64.1318 123.222C64.4398 122.951 64.5938 122.573 64.5938 122.088V121.458L63.7818 121.486ZM71.951 117.216C73.0057 117.216 73.841 117.519 74.457 118.126C75.073 118.723 75.381 119.577 75.381 120.688V121.696H70.453C70.4717 122.284 70.6443 122.746 70.971 123.082C71.307 123.418 71.769 123.586 72.357 123.586C72.8517 123.586 73.2997 123.539 73.701 123.446C74.1023 123.343 74.5177 123.189 74.947 122.984V124.594C74.5737 124.781 74.177 124.916 73.757 125C73.3463 125.093 72.847 125.14 72.259 125.14C71.4937 125.14 70.817 125 70.229 124.72C69.641 124.431 69.179 123.997 68.843 123.418C68.507 122.839 68.339 122.111 68.339 121.234C68.339 120.338 68.4883 119.596 68.787 119.008C69.095 118.411 69.5197 117.963 70.061 117.664C70.6023 117.365 71.2323 117.216 71.951 117.216ZM71.965 118.7C71.5637 118.7 71.2277 118.831 70.957 119.092C70.6957 119.353 70.5417 119.759 70.495 120.31H73.421C73.4117 119.843 73.2903 119.461 73.057 119.162C72.8237 118.854 72.4597 118.7 71.965 118.7ZM83.4005 118.924H80.8945V125H78.8085V118.924H76.3025V117.356H83.4005V118.924ZM87.824 117.216C88.8787 117.216 89.714 117.519 90.33 118.126C90.946 118.723 91.254 119.577 91.254 120.688V121.696H86.326C86.3447 122.284 86.5174 122.746 86.844 123.082C87.18 123.418 87.642 123.586 88.23 123.586C88.7247 123.586 89.1727 123.539 89.574 123.446C89.9754 123.343 90.3907 123.189 90.82 122.984V124.594C90.4467 124.781 90.05 124.916 89.63 125C89.2194 125.093 88.72 125.14 88.132 125.14C87.3667 125.14 86.69 125 86.102 124.72C85.514 124.431 85.052 123.997 84.716 123.418C84.38 122.839 84.212 122.111 84.212 121.234C84.212 120.338 84.3614 119.596 84.66 119.008C84.968 118.411 85.3927 117.963 85.934 117.664C86.4754 117.365 87.1054 117.216 87.824 117.216ZM87.838 118.7C87.4367 118.7 87.1007 118.831 86.83 119.092C86.5687 119.353 86.4147 119.759 86.368 120.31H89.294C89.2847 119.843 89.1634 119.461 88.93 119.162C88.6967 118.854 88.3327 118.7 87.838 118.7ZM102.856 117.356V125H100.77V118.924H97.9983V125H95.9123V117.356H102.856ZM108.181 117.202C109.208 117.202 109.992 117.426 110.533 117.874C111.084 118.313 111.359 118.989 111.359 119.904V125H109.903L109.497 123.964H109.441C109.114 124.375 108.769 124.673 108.405 124.86C108.041 125.047 107.542 125.14 106.907 125.14C106.226 125.14 105.661 124.944 105.213 124.552C104.765 124.151 104.541 123.539 104.541 122.718C104.541 121.906 104.826 121.309 105.395 120.926C105.964 120.534 106.818 120.319 107.957 120.282L109.287 120.24V119.904C109.287 119.503 109.18 119.209 108.965 119.022C108.76 118.835 108.47 118.742 108.097 118.742C107.724 118.742 107.36 118.798 107.005 118.91C106.65 119.013 106.296 119.143 105.941 119.302L105.255 117.888C105.666 117.673 106.118 117.505 106.613 117.384C107.117 117.263 107.64 117.202 108.181 117.202ZM108.475 121.486C107.803 121.505 107.336 121.626 107.075 121.85C106.814 122.074 106.683 122.368 106.683 122.732C106.683 123.049 106.776 123.278 106.963 123.418C107.15 123.549 107.392 123.614 107.691 123.614C108.139 123.614 108.517 123.483 108.825 123.222C109.133 122.951 109.287 122.573 109.287 122.088V121.458L108.475 121.486ZM118.506 117.356H120.802L117.778 121.024L121.068 125H118.702L115.58 121.122V125H113.494V117.356H115.58V121.066L118.506 117.356ZM125.039 117.216C126.094 117.216 126.929 117.519 127.545 118.126C128.161 118.723 128.469 119.577 128.469 120.688V121.696H123.541C123.56 122.284 123.732 122.746 124.059 123.082C124.395 123.418 124.857 123.586 125.445 123.586C125.94 123.586 126.388 123.539 126.789 123.446C127.19 123.343 127.606 123.189 128.035 122.984V124.594C127.662 124.781 127.265 124.916 126.845 125C126.434 125.093 125.935 125.14 125.347 125.14C124.582 125.14 123.905 125 123.317 124.72C122.729 124.431 122.267 123.997 121.931 123.418C121.595 122.839 121.427 122.111 121.427 121.234C121.427 120.338 121.576 119.596 121.875 119.008C122.183 118.411 122.608 117.963 123.149 117.664C123.69 117.365 124.32 117.216 125.039 117.216ZM125.053 118.7C124.652 118.7 124.316 118.831 124.045 119.092C123.784 119.353 123.63 119.759 123.583 120.31H126.509C126.5 119.843 126.378 119.461 126.145 119.162C125.912 118.854 125.548 118.7 125.053 118.7ZM136.488 118.924H133.982V125H131.896V118.924H129.39V117.356H136.488V118.924ZM139.773 117.356H142.055L143.497 121.654C143.572 121.859 143.628 122.074 143.665 122.298C143.703 122.513 143.731 122.741 143.749 122.984H143.791C143.819 122.741 143.857 122.513 143.903 122.298C143.959 122.074 144.02 121.859 144.085 121.654L145.499 117.356H147.739L144.505 125.98C144.216 126.773 143.791 127.366 143.231 127.758C142.681 128.159 142.041 128.36 141.313 128.36C141.08 128.36 140.875 128.346 140.697 128.318C140.529 128.299 140.38 128.276 140.249 128.248V126.596C140.352 126.615 140.473 126.633 140.613 126.652C140.763 126.671 140.917 126.68 141.075 126.68C141.514 126.68 141.859 126.545 142.111 126.274C142.373 126.013 142.564 125.695 142.685 125.322L142.811 124.944L139.773 117.356ZM150.67 120.156C150.67 120.819 150.978 121.15 151.594 121.15C151.995 121.15 152.369 121.108 152.714 121.024C153.059 120.931 153.405 120.809 153.75 120.66V117.356H155.836V125H153.75V121.962C153.423 122.139 153.05 122.303 152.63 122.452C152.21 122.592 151.734 122.662 151.202 122.662C150.409 122.662 149.774 122.457 149.298 122.046C148.822 121.635 148.584 121.019 148.584 120.198V117.356H150.67V120.156ZM161.16 117.202C162.186 117.202 162.97 117.426 163.512 117.874C164.062 118.313 164.338 118.989 164.338 119.904V125H162.882L162.476 123.964H162.42C162.093 124.375 161.748 124.673 161.384 124.86C161.02 125.047 160.52 125.14 159.886 125.14C159.204 125.14 158.64 124.944 158.192 124.552C157.744 124.151 157.52 123.539 157.52 122.718C157.52 121.906 157.804 121.309 158.374 120.926C158.943 120.534 159.797 120.319 160.936 120.282L162.266 120.24V119.904C162.266 119.503 162.158 119.209 161.944 119.022C161.738 118.835 161.449 118.742 161.076 118.742C160.702 118.742 160.338 118.798 159.984 118.91C159.629 119.013 159.274 119.143 158.92 119.302L158.234 117.888C158.644 117.673 159.097 117.505 159.592 117.384C160.096 117.263 160.618 117.202 161.16 117.202ZM161.454 121.486C160.782 121.505 160.315 121.626 160.054 121.85C159.792 122.074 159.662 122.368 159.662 122.732C159.662 123.049 159.755 123.278 159.942 123.418C160.128 123.549 160.371 123.614 160.67 123.614C161.118 123.614 161.496 123.483 161.804 123.222C162.112 122.951 162.266 122.573 162.266 122.088V121.458L161.454 121.486ZM169.581 125.14C168.442 125.14 167.56 124.827 166.935 124.202C166.319 123.567 166.011 122.573 166.011 121.22C166.011 120.287 166.17 119.526 166.487 118.938C166.804 118.35 167.243 117.916 167.803 117.636C168.372 117.356 169.026 117.216 169.763 117.216C170.286 117.216 170.738 117.267 171.121 117.37C171.513 117.473 171.854 117.594 172.143 117.734L171.527 119.344C171.2 119.213 170.892 119.106 170.603 119.022C170.323 118.938 170.043 118.896 169.763 118.896C168.68 118.896 168.139 119.666 168.139 121.206C168.139 121.971 168.279 122.536 168.559 122.9C168.848 123.264 169.25 123.446 169.763 123.446C170.202 123.446 170.589 123.39 170.925 123.278C171.261 123.157 171.588 122.993 171.905 122.788V124.566C171.588 124.771 171.252 124.916 170.897 125C170.552 125.093 170.113 125.14 169.581 125.14ZM179.992 118.924H177.486V125H175.4V118.924H172.894V117.356H179.992V118.924ZM183.419 120.38C183.419 120.539 183.409 120.735 183.391 120.968C183.381 121.201 183.367 121.439 183.349 121.682C183.339 121.925 183.325 122.139 183.307 122.326C183.288 122.513 183.274 122.643 183.265 122.718L186.793 117.356H189.299V125H187.283V121.948C187.283 121.696 187.292 121.421 187.311 121.122C187.329 120.814 187.348 120.529 187.367 120.268C187.395 119.997 187.413 119.792 187.423 119.652L183.909 125H181.403V117.356H183.419V120.38ZM192.641 125H190.387L192.445 121.976C192.053 121.817 191.703 121.561 191.395 121.206C191.096 120.842 190.947 120.347 190.947 119.722C190.947 118.957 191.236 118.373 191.815 117.972C192.393 117.561 193.135 117.356 194.041 117.356H197.597V125H195.511V122.158H194.363L192.641 125ZM192.991 119.736C192.991 120.053 193.117 120.305 193.369 120.492C193.621 120.669 193.947 120.758 194.349 120.758H195.511V118.826H194.083C193.709 118.826 193.434 118.919 193.257 119.106C193.079 119.283 192.991 119.493 192.991 119.736Z" fill="white"/>
<path d="M1.41986 149V140.432H7.85186V149H6.78386V141.38H2.49986V149H1.41986ZM15.6452 145.772C15.6452 146.836 15.3732 147.66 14.8292 148.244C14.2932 148.828 13.5652 149.12 12.6452 149.12C12.0772 149.12 11.5692 148.992 11.1212 148.736C10.6812 148.472 10.3332 148.092 10.0772 147.596C9.8212 147.092 9.6932 146.484 9.6932 145.772C9.6932 144.708 9.9612 143.888 10.4972 143.312C11.0332 142.736 11.7612 142.448 12.6812 142.448C13.2652 142.448 13.7772 142.58 14.2172 142.844C14.6652 143.1 15.0132 143.476 15.2612 143.972C15.5172 144.46 15.6452 145.06 15.6452 145.772ZM10.7852 145.772C10.7852 146.532 10.9332 147.136 11.2292 147.584C11.5332 148.024 12.0132 148.244 12.6692 148.244C13.3172 148.244 13.7932 148.024 14.0972 147.584C14.4012 147.136 14.5532 146.532 14.5532 145.772C14.5532 145.012 14.4012 144.416 14.0972 143.984C13.7932 143.552 13.3132 143.336 12.6572 143.336C12.0012 143.336 11.5252 143.552 11.2292 143.984C10.9332 144.416 10.7852 145.012 10.7852 145.772ZM22.0948 142.568V148.112H23.0308V151.232H22.0108V149H17.5348V151.232H16.5268V148.112H17.0428C17.5948 147.352 18.0068 146.488 18.2788 145.52C18.5588 144.544 18.7028 143.56 18.7108 142.568H22.0948ZM19.6468 143.396C19.6148 143.94 19.5308 144.504 19.3948 145.088C19.2588 145.664 19.0828 146.216 18.8668 146.744C18.6588 147.272 18.4148 147.728 18.1348 148.112H21.0748V143.396H19.6468ZM26.7275 142.46C27.5115 142.46 28.0915 142.632 28.4675 142.976C28.8435 143.32 29.0315 143.868 29.0315 144.62V149H28.2635L28.0595 148.088H28.0115C27.7315 148.44 27.4355 148.7 27.1235 148.868C26.8195 149.036 26.3955 149.12 25.8515 149.12C25.2675 149.12 24.7835 148.968 24.3995 148.664C24.0155 148.352 23.8235 147.868 23.8235 147.212C23.8235 146.572 24.0755 146.08 24.5795 145.736C25.0835 145.384 25.8595 145.192 26.9075 145.16L27.9995 145.124V144.74C27.9995 144.204 27.8835 143.832 27.6515 143.624C27.4195 143.416 27.0915 143.312 26.6675 143.312C26.3315 143.312 26.0115 143.364 25.7075 143.468C25.4035 143.564 25.1195 143.676 24.8555 143.804L24.5315 143.012C24.8115 142.86 25.1435 142.732 25.5275 142.628C25.9115 142.516 26.3115 142.46 26.7275 142.46ZM27.0395 145.892C26.2395 145.924 25.6835 146.052 25.3715 146.276C25.0675 146.5 24.9155 146.816 24.9155 147.224C24.9155 147.584 25.0235 147.848 25.2395 148.016C25.4635 148.184 25.7475 148.268 26.0915 148.268C26.6355 148.268 27.0875 148.12 27.4475 147.824C27.8075 147.52 27.9875 147.056 27.9875 146.432V145.856L27.0395 145.892ZM33.502 142.448C34.054 142.448 34.526 142.568 34.918 142.808C35.318 143.048 35.622 143.388 35.83 143.828C36.046 144.26 36.154 144.768 36.154 145.352V145.988H31.75C31.766 146.716 31.95 147.272 32.302 147.656C32.662 148.032 33.162 148.22 33.802 148.22C34.21 148.22 34.57 148.184 34.882 148.112C35.202 148.032 35.53 147.92 35.866 147.776V148.7C35.538 148.844 35.214 148.948 34.894 149.012C34.574 149.084 34.194 149.12 33.754 149.12C33.146 149.12 32.606 148.996 32.134 148.748C31.67 148.5 31.306 148.132 31.042 147.644C30.786 147.148 30.658 146.544 30.658 145.832C30.658 145.128 30.774 144.524 31.006 144.02C31.246 143.516 31.578 143.128 32.002 142.856C32.434 142.584 32.934 142.448 33.502 142.448ZM33.49 143.312C32.986 143.312 32.586 143.476 32.29 143.804C32.002 144.124 31.83 144.572 31.774 145.148H35.05C35.042 144.604 34.914 144.164 34.666 143.828C34.418 143.484 34.026 143.312 33.49 143.312ZM42.2315 143.456H40.1315V149H39.0875V143.456H37.0115V142.568H42.2315V143.456ZM45.8653 142.448C46.4173 142.448 46.8893 142.568 47.2813 142.808C47.6813 143.048 47.9853 143.388 48.1933 143.828C48.4093 144.26 48.5173 144.768 48.5173 145.352V145.988H44.1133C44.1293 146.716 44.3133 147.272 44.6653 147.656C45.0253 148.032 45.5253 148.22 46.1653 148.22C46.5733 148.22 46.9333 148.184 47.2453 148.112C47.5653 148.032 47.8933 147.92 48.2293 147.776V148.7C47.9013 148.844 47.5773 148.948 47.2573 149.012C46.9373 149.084 46.5573 149.12 46.1173 149.12C45.5093 149.12 44.9693 148.996 44.4973 148.748C44.0333 148.5 43.6693 148.132 43.4053 147.644C43.1493 147.148 43.0213 146.544 43.0213 145.832C43.0213 145.128 43.1373 144.524 43.3693 144.02C43.6093 143.516 43.9413 143.128 44.3653 142.856C44.7973 142.584 45.2973 142.448 45.8653 142.448ZM45.8533 143.312C45.3493 143.312 44.9493 143.476 44.6533 143.804C44.3653 144.124 44.1933 144.572 44.1373 145.148H47.4133C47.4053 144.604 47.2773 144.164 47.0293 143.828C46.7813 143.484 46.3893 143.312 45.8533 143.312ZM55.046 142.448C55.782 142.448 56.366 142.596 56.798 142.892C57.238 143.18 57.458 143.596 57.458 144.14C57.458 144.532 57.35 144.844 57.134 145.076C56.918 145.3 56.622 145.464 56.246 145.568V145.616C56.502 145.688 56.738 145.788 56.954 145.916C57.17 146.044 57.342 146.212 57.47 146.42C57.606 146.628 57.674 146.896 57.674 147.224C57.674 147.76 57.45 148.212 57.002 148.58C56.562 148.94 55.87 149.12 54.926 149.12C54.462 149.12 54.042 149.08 53.666 149C53.29 148.928 52.978 148.828 52.73 148.7V147.752C53.002 147.88 53.322 147.996 53.69 148.1C54.066 148.204 54.474 148.256 54.914 148.256C55.394 148.256 55.798 148.176 56.126 148.016C56.462 147.848 56.63 147.564 56.63 147.164C56.63 146.444 56.018 146.084 54.794 146.084H53.93V145.22H54.626C55.178 145.22 55.618 145.148 55.946 145.004C56.282 144.852 56.45 144.596 56.45 144.236C56.45 143.932 56.322 143.704 56.066 143.552C55.818 143.4 55.458 143.324 54.986 143.324C54.634 143.324 54.322 143.36 54.05 143.432C53.786 143.496 53.494 143.596 53.174 143.732L52.802 142.892C53.474 142.596 54.222 142.448 55.046 142.448ZM61.6728 142.46C62.4568 142.46 63.0368 142.632 63.4128 142.976C63.7888 143.32 63.9768 143.868 63.9768 144.62V149H63.2088L63.0048 148.088H62.9568C62.6768 148.44 62.3808 148.7 62.0688 148.868C61.7648 149.036 61.3408 149.12 60.7968 149.12C60.2128 149.12 59.7288 148.968 59.3448 148.664C58.9608 148.352 58.7688 147.868 58.7688 147.212C58.7688 146.572 59.0208 146.08 59.5248 145.736C60.0288 145.384 60.8048 145.192 61.8528 145.16L62.9448 145.124V144.74C62.9448 144.204 62.8288 143.832 62.5968 143.624C62.3648 143.416 62.0368 143.312 61.6128 143.312C61.2768 143.312 60.9568 143.364 60.6528 143.468C60.3488 143.564 60.0648 143.676 59.8008 143.804L59.4768 143.012C59.7568 142.86 60.0888 142.732 60.4728 142.628C60.8568 142.516 61.2568 142.46 61.6728 142.46ZM61.9848 145.892C61.1848 145.924 60.6288 146.052 60.3168 146.276C60.0128 146.5 59.8608 146.816 59.8608 147.224C59.8608 147.584 59.9688 147.848 60.1848 148.016C60.4088 148.184 60.6928 148.268 61.0368 148.268C61.5808 148.268 62.0328 148.12 62.3928 147.824C62.7528 147.52 62.9328 147.056 62.9328 146.432V145.856L61.9848 145.892ZM66.3594 149H65.1354L66.9714 146.3C66.7234 146.236 66.4834 146.136 66.2514 146C66.0194 145.856 65.8314 145.66 65.6874 145.412C65.5434 145.156 65.4714 144.84 65.4714 144.464C65.4714 143.848 65.6794 143.38 66.0954 143.06C66.5114 142.732 67.0634 142.568 67.7514 142.568H70.6314V149H69.5754V146.444H68.0154L66.3594 149ZM66.4914 144.476C66.4914 144.844 66.6274 145.12 66.8994 145.304C67.1794 145.48 67.5674 145.568 68.0634 145.568H69.5754V143.444H67.8594C67.3714 143.444 67.0194 143.54 66.8034 143.732C66.5954 143.924 66.4914 144.172 66.4914 144.476ZM77.8385 144.188C77.8385 144.588 77.7185 144.9 77.4785 145.124C77.2385 145.348 76.9305 145.5 76.5545 145.58V145.628C76.9545 145.684 77.3025 145.828 77.5985 146.06C77.8945 146.284 78.0425 146.636 78.0425 147.116C78.0425 147.66 77.8385 148.112 77.4305 148.472C77.0305 148.824 76.3665 149 75.4385 149H72.6665V142.568H75.4265C75.8825 142.568 76.2905 142.62 76.6505 142.724C77.0185 142.82 77.3065 142.988 77.5145 143.228C77.7305 143.46 77.8385 143.78 77.8385 144.188ZM76.7705 144.32C76.7705 144.016 76.6585 143.796 76.4345 143.66C76.2185 143.516 75.8625 143.444 75.3665 143.444H73.7225V145.208H75.1745C76.2385 145.208 76.7705 144.912 76.7705 144.32ZM76.9505 147.116C76.9505 146.748 76.8105 146.484 76.5305 146.324C76.2505 146.164 75.8385 146.084 75.2945 146.084H73.7225V148.148H75.3185C75.8465 148.148 76.2505 148.072 76.5305 147.92C76.8105 147.76 76.9505 147.492 76.9505 147.116ZM83.3845 142.568H84.5365L81.7885 145.664L84.7645 149H83.5405L80.6365 145.736V149H79.5805V142.568H80.6365V145.688L83.3845 142.568ZM84.9241 142.568H86.0521L87.4441 146.228C87.5641 146.548 87.6721 146.856 87.7681 147.152C87.8641 147.44 87.9361 147.716 87.9841 147.98H88.0321C88.0801 147.78 88.1561 147.52 88.2601 147.2C88.3641 146.872 88.4721 146.544 88.5841 146.216L89.8921 142.568H91.0321L88.2601 149.888C88.0361 150.496 87.7441 150.98 87.3841 151.34C87.0321 151.7 86.5441 151.88 85.9201 151.88C85.7281 151.88 85.5601 151.868 85.4161 151.844C85.2721 151.828 85.1481 151.808 85.0441 151.784V150.944C85.1321 150.96 85.2361 150.976 85.3561 150.992C85.4841 151.008 85.6161 151.016 85.7521 151.016C86.1201 151.016 86.4161 150.912 86.6401 150.704C86.8721 150.496 87.0521 150.22 87.1801 149.876L87.5161 149.024L84.9241 142.568ZM96.2445 146.492C96.2445 146.588 96.2405 146.732 96.2325 146.924C96.2245 147.116 96.2125 147.308 96.1965 147.5C96.1885 147.692 96.1805 147.844 96.1725 147.956L99.6165 142.568H100.913V149H99.9285V145.208C99.9285 145.08 99.9285 144.912 99.9285 144.704C99.9365 144.496 99.9445 144.292 99.9525 144.092C99.9605 143.884 99.9685 143.728 99.9765 143.624L96.5565 149H95.2485V142.568H96.2445V146.492ZM111.331 144.188C111.331 144.588 111.211 144.9 110.971 145.124C110.731 145.348 110.423 145.5 110.047 145.58V145.628C110.447 145.684 110.795 145.828 111.091 146.06C111.387 146.284 111.535 146.636 111.535 147.116C111.535 147.66 111.331 148.112 110.923 148.472C110.523 148.824 109.859 149 108.931 149H106.159V142.568H108.919C109.375 142.568 109.783 142.62 110.143 142.724C110.511 142.82 110.799 142.988 111.007 143.228C111.223 143.46 111.331 143.78 111.331 144.188ZM110.263 144.32C110.263 144.016 110.151 143.796 109.927 143.66C109.711 143.516 109.355 143.444 108.859 143.444H107.215V145.208H108.667C109.731 145.208 110.263 144.912 110.263 144.32ZM110.443 147.116C110.443 146.748 110.303 146.484 110.023 146.324C109.743 146.164 109.331 146.084 108.787 146.084H107.215V148.148H108.811C109.339 148.148 109.743 148.072 110.023 147.92C110.303 147.76 110.443 147.492 110.443 147.116ZM113.073 149V142.568H114.129V145.208H115.797C116.629 145.208 117.245 145.36 117.645 145.664C118.045 145.968 118.245 146.424 118.245 147.032C118.245 147.632 118.049 148.112 117.657 148.472C117.265 148.824 116.629 149 115.749 149H113.073ZM119.313 149V142.568H120.369V149H119.313ZM115.653 148.148C116.109 148.148 116.481 148.072 116.769 147.92C117.057 147.76 117.201 147.484 117.201 147.092C117.201 146.7 117.069 146.436 116.805 146.3C116.541 146.156 116.161 146.084 115.665 146.084H114.129V148.148H115.653ZM122.077 145.136C122.077 143.728 122.289 142.632 122.713 141.848C123.137 141.056 123.821 140.56 124.765 140.36C125.285 140.248 125.793 140.148 126.289 140.06C126.785 139.972 127.249 139.892 127.681 139.82L127.861 140.744C127.581 140.784 127.265 140.836 126.913 140.9C126.561 140.956 126.213 141.016 125.869 141.08C125.525 141.136 125.229 141.192 124.981 141.248C124.461 141.36 124.049 141.632 123.745 142.064C123.441 142.488 123.269 143.152 123.229 144.056H123.301C123.413 143.904 123.565 143.748 123.757 143.588C123.957 143.428 124.193 143.292 124.465 143.18C124.745 143.068 125.061 143.012 125.413 143.012C126.245 143.012 126.873 143.28 127.297 143.816C127.721 144.352 127.933 145.048 127.933 145.904C127.933 146.616 127.809 147.212 127.561 147.692C127.313 148.172 126.969 148.532 126.529 148.772C126.089 149.004 125.577 149.12 124.993 149.12C124.105 149.12 123.397 148.78 122.869 148.1C122.341 147.42 122.077 146.432 122.077 145.136ZM125.077 148.244C125.597 148.244 126.017 148.076 126.337 147.74C126.657 147.404 126.817 146.828 126.817 146.012C126.817 145.356 126.693 144.84 126.445 144.464C126.205 144.08 125.805 143.888 125.245 143.888C124.893 143.888 124.573 143.968 124.285 144.128C123.997 144.28 123.757 144.456 123.565 144.656C123.373 144.856 123.237 145.024 123.157 145.16C123.157 145.552 123.185 145.932 123.241 146.3C123.297 146.668 123.393 147 123.529 147.296C123.673 147.584 123.869 147.816 124.117 147.992C124.373 148.16 124.693 148.244 125.077 148.244ZM130.592 146.492C130.592 146.588 130.588 146.732 130.58 146.924C130.572 147.116 130.56 147.308 130.544 147.5C130.536 147.692 130.528 147.844 130.52 147.956L133.964 142.568H135.26V149H134.276V145.208C134.276 145.08 134.276 144.912 134.276 144.704C134.284 144.496 134.292 144.292 134.3 144.092C134.308 143.884 134.316 143.728 134.324 143.624L130.904 149H129.596V142.568H130.592V146.492ZM140.367 142.448C141.159 142.448 141.795 142.724 142.275 143.276C142.763 143.828 143.007 144.66 143.007 145.772C143.007 146.868 142.763 147.7 142.275 148.268C141.795 148.836 141.155 149.12 140.355 149.12C139.859 149.12 139.447 149.028 139.119 148.844C138.799 148.652 138.547 148.432 138.363 148.184H138.291C138.307 148.32 138.323 148.492 138.339 148.7C138.355 148.908 138.363 149.088 138.363 149.24V151.88H137.307V142.568H138.171L138.315 143.444H138.363C138.555 143.164 138.807 142.928 139.119 142.736C139.431 142.544 139.847 142.448 140.367 142.448ZM140.175 143.336C139.519 143.336 139.055 143.52 138.783 143.888C138.519 144.256 138.379 144.816 138.363 145.568V145.772C138.363 146.564 138.491 147.176 138.747 147.608C139.011 148.032 139.495 148.244 140.199 148.244C140.591 148.244 140.911 148.136 141.159 147.92C141.415 147.704 141.603 147.412 141.723 147.044C141.851 146.668 141.915 146.24 141.915 145.76C141.915 145.024 141.771 144.436 141.483 143.996C141.203 143.556 140.767 143.336 140.175 143.336ZM147.126 142.46C147.91 142.46 148.49 142.632 148.866 142.976C149.242 143.32 149.43 143.868 149.43 144.62V149H148.662L148.458 148.088H148.41C148.13 148.44 147.834 148.7 147.522 148.868C147.218 149.036 146.794 149.12 146.25 149.12C145.666 149.12 145.182 148.968 144.798 148.664C144.414 148.352 144.222 147.868 144.222 147.212C144.222 146.572 144.474 146.08 144.978 145.736C145.482 145.384 146.258 145.192 147.306 145.16L148.398 145.124V144.74C148.398 144.204 148.282 143.832 148.05 143.624C147.818 143.416 147.49 143.312 147.066 143.312C146.73 143.312 146.41 143.364 146.106 143.468C145.802 143.564 145.518 143.676 145.254 143.804L144.93 143.012C145.21 142.86 145.542 142.732 145.926 142.628C146.31 142.516 146.71 142.46 147.126 142.46ZM147.438 145.892C146.638 145.924 146.082 146.052 145.77 146.276C145.466 146.5 145.314 146.816 145.314 147.224C145.314 147.584 145.422 147.848 145.638 148.016C145.862 148.184 146.146 148.268 146.49 148.268C147.034 148.268 147.486 148.12 147.846 147.824C148.206 147.52 148.386 147.056 148.386 146.432V145.856L147.438 145.892ZM153.9 142.448C154.452 142.448 154.924 142.568 155.316 142.808C155.716 143.048 156.02 143.388 156.228 143.828C156.444 144.26 156.552 144.768 156.552 145.352V145.988H152.148C152.164 146.716 152.348 147.272 152.7 147.656C153.06 148.032 153.56 148.22 154.2 148.22C154.608 148.22 154.968 148.184 155.28 148.112C155.6 148.032 155.928 147.92 156.264 147.776V148.7C155.936 148.844 155.612 148.948 155.292 149.012C154.972 149.084 154.592 149.12 154.152 149.12C153.544 149.12 153.004 148.996 152.532 148.748C152.068 148.5 151.704 148.132 151.44 147.644C151.184 147.148 151.056 146.544 151.056 145.832C151.056 145.128 151.172 144.524 151.404 144.02C151.644 143.516 151.976 143.128 152.4 142.856C152.832 142.584 153.332 142.448 153.9 142.448ZM153.888 143.312C153.384 143.312 152.984 143.476 152.688 143.804C152.4 144.124 152.228 144.572 152.172 145.148H155.448C155.44 144.604 155.312 144.164 155.064 143.828C154.816 143.484 154.424 143.312 153.888 143.312ZM162.63 143.456H160.53V149H159.486V143.456H157.41V142.568H162.63V143.456ZM166.264 142.448C166.816 142.448 167.288 142.568 167.68 142.808C168.08 143.048 168.384 143.388 168.592 143.828C168.808 144.26 168.916 144.768 168.916 145.352V145.988H164.512C164.528 146.716 164.712 147.272 165.064 147.656C165.424 148.032 165.924 148.22 166.564 148.22C166.972 148.22 167.332 148.184 167.644 148.112C167.964 148.032 168.292 147.92 168.628 147.776V148.7C168.3 148.844 167.976 148.948 167.656 149.012C167.336 149.084 166.956 149.12 166.516 149.12C165.908 149.12 165.368 148.996 164.896 148.748C164.432 148.5 164.068 148.132 163.804 147.644C163.548 147.148 163.42 146.544 163.42 145.832C163.42 145.128 163.536 144.524 163.768 144.02C164.008 143.516 164.34 143.128 164.764 142.856C165.196 142.584 165.696 142.448 166.264 142.448ZM166.252 143.312C165.748 143.312 165.348 143.476 165.052 143.804C164.764 144.124 164.592 144.572 164.536 145.148H167.812C167.804 144.604 167.676 144.164 167.428 143.828C167.18 143.484 166.788 143.312 166.252 143.312ZM179.188 142.568V149H178.132V143.468H174.808V149H173.752V142.568H179.188ZM183.677 142.46C184.461 142.46 185.041 142.632 185.417 142.976C185.793 143.32 185.981 143.868 185.981 144.62V149H185.213L185.009 148.088H184.961C184.681 148.44 184.385 148.7 184.073 148.868C183.769 149.036 183.345 149.12 182.801 149.12C182.217 149.12 181.733 148.968 181.349 148.664C180.965 148.352 180.773 147.868 180.773 147.212C180.773 146.572 181.025 146.08 181.529 145.736C182.033 145.384 182.809 145.192 183.857 145.16L184.949 145.124V144.74C184.949 144.204 184.833 143.832 184.601 143.624C184.369 143.416 184.041 143.312 183.617 143.312C183.281 143.312 182.961 143.364 182.657 143.468C182.353 143.564 182.069 143.676 181.805 143.804L181.481 143.012C181.761 142.86 182.093 142.732 182.477 142.628C182.861 142.516 183.261 142.46 183.677 142.46ZM183.989 145.892C183.189 145.924 182.633 146.052 182.321 146.276C182.017 146.5 181.865 146.816 181.865 147.224C181.865 147.584 181.973 147.848 182.189 148.016C182.413 148.184 182.697 148.268 183.041 148.268C183.585 148.268 184.037 148.12 184.397 147.824C184.757 147.52 184.937 147.056 184.937 146.432V145.856L183.989 145.892ZM191.771 142.568H192.923L190.175 145.664L193.151 149H191.927L189.023 145.736V149H187.967V142.568H189.023V145.688L191.771 142.568ZM196.568 142.448C197.12 142.448 197.592 142.568 197.984 142.808C198.384 143.048 198.688 143.388 198.896 143.828C199.112 144.26 199.22 144.768 199.22 145.352V145.988H194.816C194.832 146.716 195.016 147.272 195.368 147.656C195.728 148.032 196.228 148.22 196.868 148.22C197.276 148.22 197.636 148.184 197.948 148.112C198.268 148.032 198.596 147.92 198.932 147.776V148.7C198.604 148.844 198.28 148.948 197.96 149.012C197.64 149.084 197.26 149.12 196.82 149.12C196.212 149.12 195.672 148.996 195.2 148.748C194.736 148.5 194.372 148.132 194.108 147.644C193.852 147.148 193.724 146.544 193.724 145.832C193.724 145.128 193.84 144.524 194.072 144.02C194.312 143.516 194.644 143.128 195.068 142.856C195.5 142.584 196 142.448 196.568 142.448ZM196.556 143.312C196.052 143.312 195.652 143.476 195.356 143.804C195.068 144.124 194.896 144.572 194.84 145.148H198.116C198.108 144.604 197.98 144.164 197.732 143.828C197.484 143.484 197.092 143.312 196.556 143.312ZM205.298 143.456H203.198V149H202.154V143.456H200.078V142.568H205.298V143.456ZM15.1155 160.568H16.2435L17.6355 164.228C17.7555 164.548 17.8635 164.856 17.9595 165.152C18.0555 165.44 18.1275 165.716 18.1755 165.98H18.2235C18.2715 165.78 18.3475 165.52 18.4515 165.2C18.5555 164.872 18.6635 164.544 18.7755 164.216L20.0835 160.568H21.2235L18.4515 167.888C18.2275 168.496 17.9355 168.98 17.5755 169.34C17.2235 169.7 16.7355 169.88 16.1115 169.88C15.9195 169.88 15.7515 169.868 15.6075 169.844C15.4635 169.828 15.3395 169.808 15.2355 169.784V168.944C15.3235 168.96 15.4275 168.976 15.5475 168.992C15.6755 169.008 15.8075 169.016 15.9435 169.016C16.3115 169.016 16.6075 168.912 16.8315 168.704C17.0635 168.496 17.2435 168.22 17.3715 167.876L17.7075 167.024L15.1155 160.568ZM23.1647 162.908C23.1647 163.644 23.5767 164.012 24.4007 164.012C24.8007 164.012 25.1647 163.952 25.4927 163.832C25.8207 163.704 26.1567 163.536 26.5007 163.328V160.568H27.5567V167H26.5007V164.132C26.1407 164.364 25.7847 164.548 25.4327 164.684C25.0887 164.812 24.6727 164.876 24.1847 164.876C23.5287 164.876 23.0167 164.704 22.6487 164.36C22.2887 164.016 22.1087 163.556 22.1087 162.98V160.568H23.1647V162.908ZM32.0361 160.46C32.8201 160.46 33.4001 160.632 33.7761 160.976C34.1521 161.32 34.3401 161.868 34.3401 162.62V167H33.5721L33.3681 166.088H33.3201C33.0401 166.44 32.7441 166.7 32.4321 166.868C32.1281 167.036 31.7041 167.12 31.1601 167.12C30.5761 167.12 30.0921 166.968 29.7081 166.664C29.3241 166.352 29.1321 165.868 29.1321 165.212C29.1321 164.572 29.3841 164.08 29.8881 163.736C30.3921 163.384 31.1681 163.192 32.2161 163.16L33.3081 163.124V162.74C33.3081 162.204 33.1921 161.832 32.9601 161.624C32.7281 161.416 32.4001 161.312 31.9761 161.312C31.6401 161.312 31.3201 161.364 31.0161 161.468C30.7121 161.564 30.4281 161.676 30.1641 161.804L29.8401 161.012C30.1201 160.86 30.4521 160.732 30.8361 160.628C31.2201 160.516 31.6201 160.46 32.0361 160.46ZM32.3481 163.892C31.5481 163.924 30.9921 164.052 30.6801 164.276C30.3761 164.5 30.2241 164.816 30.2241 165.224C30.2241 165.584 30.3321 165.848 30.5481 166.016C30.7721 166.184 31.0561 166.268 31.4001 166.268C31.9441 166.268 32.3961 166.12 32.7561 165.824C33.1161 165.52 33.2961 165.056 33.2961 164.432V163.856L32.3481 163.892ZM38.9066 167.12C38.3386 167.12 37.8306 167.004 37.3826 166.772C36.9426 166.54 36.5946 166.18 36.3386 165.692C36.0906 165.204 35.9666 164.58 35.9666 163.82C35.9666 163.028 36.0986 162.384 36.3626 161.888C36.6266 161.392 36.9826 161.028 37.4306 160.796C37.8866 160.564 38.4026 160.448 38.9786 160.448C39.3066 160.448 39.6226 160.484 39.9266 160.556C40.2306 160.62 40.4786 160.7 40.6706 160.796L40.3466 161.672C40.1546 161.6 39.9306 161.532 39.6746 161.468C39.4186 161.404 39.1786 161.372 38.9546 161.372C37.6906 161.372 37.0586 162.184 37.0586 163.808C37.0586 164.584 37.2106 165.18 37.5146 165.596C37.8266 166.004 38.2866 166.208 38.8946 166.208C39.2466 166.208 39.5546 166.172 39.8186 166.1C40.0906 166.028 40.3386 165.94 40.5626 165.836V166.772C40.3466 166.884 40.1066 166.968 39.8426 167.024C39.5866 167.088 39.2746 167.12 38.9066 167.12ZM46.5323 161.456H44.4323V167H43.3883V161.456H41.3123V160.568H46.5323V161.456ZM48.7953 164.492C48.7953 164.588 48.7913 164.732 48.7833 164.924C48.7753 165.116 48.7633 165.308 48.7473 165.5C48.7393 165.692 48.7313 165.844 48.7233 165.956L52.1673 160.568H53.4633V167H52.4793V163.208C52.4793 163.08 52.4793 162.912 52.4793 162.704C52.4873 162.496 52.4953 162.292 52.5033 162.092C52.5113 161.884 52.5193 161.728 52.5273 161.624L49.1073 167H47.7993V160.568H48.7953V164.492ZM55.9062 167H54.6822L56.5182 164.3C56.2702 164.236 56.0302 164.136 55.7982 164C55.5662 163.856 55.3782 163.66 55.2342 163.412C55.0902 163.156 55.0182 162.84 55.0182 162.464C55.0182 161.848 55.2262 161.38 55.6422 161.06C56.0582 160.732 56.6102 160.568 57.2982 160.568H60.1782V167H59.1222V164.444H57.5622L55.9062 167ZM56.0382 162.476C56.0382 162.844 56.1742 163.12 56.4462 163.304C56.7262 163.48 57.1142 163.568 57.6102 163.568H59.1222V161.444H57.4062C56.9182 161.444 56.5662 161.54 56.3502 161.732C56.1422 161.924 56.0382 162.172 56.0382 162.476ZM67.9926 167.12C67.4246 167.12 66.9166 167.004 66.4686 166.772C66.0286 166.54 65.6806 166.18 65.4246 165.692C65.1766 165.204 65.0526 164.58 65.0526 163.82C65.0526 163.028 65.1846 162.384 65.4486 161.888C65.7126 161.392 66.0686 161.028 66.5166 160.796C66.9726 160.564 67.4886 160.448 68.0646 160.448C68.3926 160.448 68.7086 160.484 69.0126 160.556C69.3166 160.62 69.5646 160.7 69.7566 160.796L69.4326 161.672C69.2406 161.6 69.0166 161.532 68.7606 161.468C68.5046 161.404 68.2646 161.372 68.0406 161.372C66.7766 161.372 66.1446 162.184 66.1446 163.808C66.1446 164.584 66.2966 165.18 66.6006 165.596C66.9126 166.004 67.3726 166.208 67.9806 166.208C68.3326 166.208 68.6406 166.172 68.9046 166.1C69.1766 166.028 69.4246 165.94 69.6486 165.836V166.772C69.4326 166.884 69.1926 166.968 68.9286 167.024C68.6726 167.088 68.3606 167.12 67.9926 167.12ZM79.5494 162.188C79.5494 162.588 79.4294 162.9 79.1894 163.124C78.9494 163.348 78.6414 163.5 78.2654 163.58V163.628C78.6654 163.684 79.0134 163.828 79.3094 164.06C79.6054 164.284 79.7534 164.636 79.7534 165.116C79.7534 165.66 79.5494 166.112 79.1414 166.472C78.7414 166.824 78.0774 167 77.1494 167H74.3774V160.568H77.1374C77.5934 160.568 78.0014 160.62 78.3614 160.724C78.7294 160.82 79.0174 160.988 79.2254 161.228C79.4414 161.46 79.5494 161.78 79.5494 162.188ZM78.4814 162.32C78.4814 162.016 78.3694 161.796 78.1454 161.66C77.9294 161.516 77.5734 161.444 77.0774 161.444H75.4334V163.208H76.8854C77.9494 163.208 78.4814 162.912 78.4814 162.32ZM78.6614 165.116C78.6614 164.748 78.5214 164.484 78.2414 164.324C77.9614 164.164 77.5494 164.084 77.0054 164.084H75.4334V166.148H77.0294C77.5574 166.148 77.9614 166.072 78.2414 165.92C78.5214 165.76 78.6614 165.492 78.6614 165.116ZM83.7275 160.46C84.5115 160.46 85.0915 160.632 85.4675 160.976C85.8435 161.32 86.0315 161.868 86.0315 162.62V167H85.2635L85.0595 166.088H85.0115C84.7315 166.44 84.4355 166.7 84.1235 166.868C83.8195 167.036 83.3955 167.12 82.8515 167.12C82.2675 167.12 81.7835 166.968 81.3995 166.664C81.0155 166.352 80.8235 165.868 80.8235 165.212C80.8235 164.572 81.0755 164.08 81.5795 163.736C82.0835 163.384 82.8595 163.192 83.9075 163.16L84.9995 163.124V162.74C84.9995 162.204 84.8835 161.832 84.6515 161.624C84.4195 161.416 84.0915 161.312 83.6675 161.312C83.3315 161.312 83.0115 161.364 82.7075 161.468C82.4035 161.564 82.1195 161.676 81.8555 161.804L81.5315 161.012C81.8115 160.86 82.1435 160.732 82.5275 160.628C82.9115 160.516 83.3115 160.46 83.7275 160.46ZM84.0395 163.892C83.2395 163.924 82.6835 164.052 82.3715 164.276C82.0675 164.5 81.9155 164.816 81.9155 165.224C81.9155 165.584 82.0235 165.848 82.2395 166.016C82.4635 166.184 82.7475 166.268 83.0915 166.268C83.6355 166.268 84.0875 166.12 84.4475 165.824C84.8075 165.52 84.9875 165.056 84.9875 164.432V163.856L84.0395 163.892ZM96.742 160.568V167H88.018V160.568H89.074V166.112H91.846V160.568H92.902V166.112H95.686V160.568H96.742ZM99.7953 164.492C99.7953 164.588 99.7913 164.732 99.7833 164.924C99.7753 165.116 99.7633 165.308 99.7473 165.5C99.7393 165.692 99.7313 165.844 99.7233 165.956L103.167 160.568H104.463V167H103.479V163.208C103.479 163.08 103.479 162.912 103.479 162.704C103.487 162.496 103.495 162.292 103.503 162.092C103.511 161.884 103.519 161.728 103.527 161.624L100.107 167H98.7993V160.568H99.7953V164.492ZM113.41 160.568V167H112.462V162.896C112.462 162.728 112.466 162.552 112.474 162.368C112.49 162.184 112.506 162.004 112.522 161.828H112.486L110.386 167H109.498L107.458 161.828H107.422C107.446 162.188 107.458 162.556 107.458 162.932V167H106.51V160.568H107.914L109.942 165.74L112.006 160.568H113.41ZM125.563 160.568V167H124.615V162.896C124.615 162.728 124.619 162.552 124.627 162.368C124.643 162.184 124.659 162.004 124.675 161.828H124.639L122.539 167H121.651L119.611 161.828H119.575C119.599 162.188 119.611 162.556 119.611 162.932V167H118.663V160.568H120.067L122.095 165.74L124.159 160.568H125.563ZM130.1 160.448C130.652 160.448 131.124 160.568 131.516 160.808C131.916 161.048 132.22 161.388 132.428 161.828C132.644 162.26 132.752 162.768 132.752 163.352V163.988H128.348C128.364 164.716 128.548 165.272 128.9 165.656C129.26 166.032 129.76 166.22 130.4 166.22C130.808 166.22 131.168 166.184 131.48 166.112C131.8 166.032 132.128 165.92 132.464 165.776V166.7C132.136 166.844 131.812 166.948 131.492 167.012C131.172 167.084 130.792 167.12 130.352 167.12C129.744 167.12 129.204 166.996 128.732 166.748C128.268 166.5 127.904 166.132 127.64 165.644C127.384 165.148 127.256 164.544 127.256 163.832C127.256 163.128 127.372 162.524 127.604 162.02C127.844 161.516 128.176 161.128 128.6 160.856C129.032 160.584 129.532 160.448 130.1 160.448ZM130.088 161.312C129.584 161.312 129.184 161.476 128.888 161.804C128.6 162.124 128.428 162.572 128.372 163.148H131.648C131.64 162.604 131.512 162.164 131.264 161.828C131.016 161.484 130.624 161.312 130.088 161.312ZM135.445 160.568V163.244H138.937V160.568H139.993V167H138.937V164.132H135.445V167H134.389V160.568H135.445ZM144.514 160.448C145.066 160.448 145.538 160.568 145.93 160.808C146.33 161.048 146.634 161.388 146.842 161.828C147.058 162.26 147.166 162.768 147.166 163.352V163.988H142.762C142.778 164.716 142.962 165.272 143.314 165.656C143.674 166.032 144.174 166.22 144.814 166.22C145.222 166.22 145.582 166.184 145.894 166.112C146.214 166.032 146.542 165.92 146.878 165.776V166.7C146.55 166.844 146.226 166.948 145.906 167.012C145.586 167.084 145.206 167.12 144.766 167.12C144.158 167.12 143.618 166.996 143.146 166.748C142.682 166.5 142.318 166.132 142.054 165.644C141.798 165.148 141.67 164.544 141.67 163.832C141.67 163.128 141.786 162.524 142.018 162.02C142.258 161.516 142.59 161.128 143.014 160.856C143.446 160.584 143.946 160.448 144.514 160.448ZM144.502 161.312C143.998 161.312 143.598 161.476 143.302 161.804C143.014 162.124 142.842 162.572 142.786 163.148H146.062C146.054 162.604 145.926 162.164 145.678 161.828C145.43 161.484 145.038 161.312 144.502 161.312ZM153.579 160.568V166.112H154.515V169.232H153.495V167H149.019V169.232H148.011V166.112H148.527C149.079 165.352 149.491 164.488 149.763 163.52C150.043 162.544 150.187 161.56 150.195 160.568H153.579ZM151.131 161.396C151.099 161.94 151.015 162.504 150.879 163.088C150.743 163.664 150.567 164.216 150.351 164.744C150.143 165.272 149.899 165.728 149.619 166.112H152.559V161.396H151.131ZM163.492 160.568L160.84 163.688L163.72 167H162.52L159.736 163.736V167H158.752V163.736L155.968 167H154.768L157.648 163.688L154.996 160.568H156.148L158.752 163.688V160.568H159.736V163.688L162.352 160.568H163.492ZM167.025 160.448C167.577 160.448 168.049 160.568 168.441 160.808C168.841 161.048 169.145 161.388 169.353 161.828C169.569 162.26 169.677 162.768 169.677 163.352V163.988H165.273C165.289 164.716 165.473 165.272 165.825 165.656C166.185 166.032 166.685 166.22 167.325 166.22C167.733 166.22 168.093 166.184 168.405 166.112C168.725 166.032 169.053 165.92 169.389 165.776V166.7C169.061 166.844 168.737 166.948 168.417 167.012C168.097 167.084 167.717 167.12 167.277 167.12C166.669 167.12 166.129 166.996 165.657 166.748C165.193 166.5 164.829 166.132 164.565 165.644C164.309 165.148 164.181 164.544 164.181 163.832C164.181 163.128 164.297 162.524 164.529 162.02C164.769 161.516 165.101 161.128 165.525 160.856C165.957 160.584 166.457 160.448 167.025 160.448ZM167.013 161.312C166.509 161.312 166.109 161.476 165.813 161.804C165.525 162.124 165.353 162.572 165.297 163.148H168.573C168.565 162.604 168.437 162.164 168.189 161.828C167.941 161.484 167.549 161.312 167.013 161.312ZM174.375 160.448C175.167 160.448 175.803 160.724 176.283 161.276C176.771 161.828 177.015 162.66 177.015 163.772C177.015 164.868 176.771 165.7 176.283 166.268C175.803 166.836 175.163 167.12 174.363 167.12C173.867 167.12 173.455 167.028 173.127 166.844C172.807 166.652 172.555 166.432 172.371 166.184H172.299C172.315 166.32 172.331 166.492 172.347 166.7C172.363 166.908 172.371 167.088 172.371 167.24V169.88H171.315V160.568H172.179L172.323 161.444H172.371C172.563 161.164 172.815 160.928 173.127 160.736C173.439 160.544 173.855 160.448 174.375 160.448ZM174.183 161.336C173.527 161.336 173.063 161.52 172.791 161.888C172.527 162.256 172.387 162.816 172.371 163.568V163.772C172.371 164.564 172.499 165.176 172.755 165.608C173.019 166.032 173.503 166.244 174.207 166.244C174.599 166.244 174.919 166.136 175.167 165.92C175.423 165.704 175.611 165.412 175.731 165.044C175.859 164.668 175.923 164.24 175.923 163.76C175.923 163.024 175.779 162.436 175.491 161.996C175.211 161.556 174.775 161.336 174.183 161.336ZM184.29 163.772C184.29 164.836 184.018 165.66 183.474 166.244C182.938 166.828 182.21 167.12 181.29 167.12C180.722 167.12 180.214 166.992 179.766 166.736C179.326 166.472 178.978 166.092 178.722 165.596C178.466 165.092 178.338 164.484 178.338 163.772C178.338 162.708 178.606 161.888 179.142 161.312C179.678 160.736 180.406 160.448 181.326 160.448C181.91 160.448 182.422 160.58 182.862 160.844C183.31 161.1 183.658 161.476 183.906 161.972C184.162 162.46 184.29 163.06 184.29 163.772ZM179.43 163.772C179.43 164.532 179.578 165.136 179.874 165.584C180.178 166.024 180.658 166.244 181.314 166.244C181.962 166.244 182.438 166.024 182.742 165.584C183.046 165.136 183.198 164.532 183.198 163.772C183.198 163.012 183.046 162.416 182.742 161.984C182.438 161.552 181.958 161.336 181.302 161.336C180.646 161.336 180.17 161.552 179.874 161.984C179.578 162.416 179.43 163.012 179.43 163.772ZM192.863 160.568V167H191.915V162.896C191.915 162.728 191.919 162.552 191.927 162.368C191.943 162.184 191.959 162.004 191.975 161.828H191.939L189.839 167H188.951L186.911 161.828H186.875C186.899 162.188 186.911 162.556 186.911 162.932V167H185.963V160.568H187.367L189.395 165.74L191.459 160.568H192.863Z" fill="white"/>
<defs>
<clipPath id="clip0_0_287">
<rect width="60" height="60" fill="white" transform="translate(74 40)"/>
</clipPath>
</defs>
</svg>
